<svg width="240" height="75" viewBox="0 0 240 75" fill="none" xmlns="http://www.w3.org/2000/svg">
<path d="M13.7783 10H2V73H229V63" stroke="#6E9896" stroke-width="3"/>
<rect x="14.5" y="1.5" width="224" height="60" stroke="#6E9896" stroke-width="3"/>
<path d="M45.1588 33.2188H43.2867V38H40.817V25.2031H45.1061C45.815 25.2031 46.4566 25.2881 47.0309 25.458C47.6051 25.6221 48.0943 25.8652 48.4986 26.1875C48.9088 26.5098 49.2223 26.9111 49.4391 27.3916C49.6617 27.8721 49.773 28.4287 49.773 29.0615C49.773 29.5186 49.7174 29.9316 49.6061 30.3008C49.5006 30.6641 49.3453 30.9922 49.1402 31.2852C48.941 31.5723 48.6979 31.8242 48.4107 32.041C48.1295 32.2578 47.8131 32.4453 47.4615 32.6035L50.2125 37.8857V38H47.567L45.1588 33.2188ZM43.2867 31.2148H45.1148C45.8121 31.2148 46.3482 31.0391 46.7232 30.6875C47.1041 30.3301 47.2945 29.8438 47.2945 29.2285C47.2945 28.5898 47.11 28.0947 46.7408 27.7432C46.3717 27.3857 45.8268 27.207 45.1061 27.207H43.2867V31.2148ZM59.6825 32.3926H54.4267V36.0049H60.5702V38H51.9482V25.2031H60.5439V27.2158H54.4267V30.4414H59.6825V32.3926ZM71.8069 32.9287C71.801 33.7139 71.6633 34.4551 71.3938 35.1523C71.1301 35.8438 70.7405 36.4355 70.2248 36.9277L72.343 38.8438L70.7522 40.2588L68.3176 38.0088C68.1125 38.0615 67.9016 38.1025 67.6848 38.1318C67.4739 38.1611 67.2541 38.1758 67.0256 38.1758C66.2873 38.1758 65.6311 38.0352 65.0569 37.7539C64.4827 37.4668 63.9963 37.083 63.5979 36.6025C63.2053 36.1162 62.9065 35.5566 62.7014 34.9238C62.4963 34.291 62.3938 33.626 62.3938 32.9287V30.7139C62.3938 29.8877 62.4963 29.1289 62.7014 28.4375C62.9065 27.7402 63.2053 27.1396 63.5979 26.6357C63.9963 26.1318 64.4827 25.7393 65.0569 25.458C65.6311 25.1709 66.2873 25.0273 67.0256 25.0273C67.7698 25.0273 68.4377 25.1709 69.0295 25.458C69.6213 25.7393 70.1223 26.1318 70.5325 26.6357C70.9426 27.1396 71.2561 27.7402 71.4729 28.4375C71.6955 29.1289 71.8069 29.8877 71.8069 30.7139V32.9287ZM69.302 30.6963C69.302 30.1689 69.258 29.6855 69.1702 29.2461C69.0881 28.8008 68.9563 28.417 68.7747 28.0947C68.593 27.7725 68.3586 27.5234 68.0715 27.3477C67.7844 27.166 67.4358 27.0752 67.0256 27.0752C66.6213 27.0752 66.2815 27.166 66.0061 27.3477C65.7366 27.5293 65.5198 27.7812 65.3557 28.1035C65.1916 28.4199 65.0745 28.8008 65.0041 29.2461C64.9338 29.6855 64.8987 30.1689 64.8987 30.6963V32.9287C64.8987 33.3271 64.9338 33.7197 65.0041 34.1064C65.0745 34.4873 65.1916 34.8301 65.3557 35.1348C65.5198 35.4336 65.7366 35.6768 66.0061 35.8643C66.2815 36.0518 66.6213 36.1455 67.0256 36.1455C67.4358 36.1455 67.7844 36.0547 68.0715 35.873C68.3586 35.6855 68.593 35.4395 68.7747 35.1348C68.9563 34.8301 69.0881 34.4873 69.1702 34.1064C69.258 33.7197 69.302 33.3271 69.302 32.9287V30.6963ZM82.314 25.2031L82.3228 33.6846C82.3228 34.3994 82.2232 35.0352 82.024 35.5918C81.8306 36.1484 81.5464 36.6201 81.1714 37.0068C80.8023 37.3877 80.3482 37.6777 79.8091 37.877C79.2759 38.0762 78.6666 38.1758 77.981 38.1758C77.3365 38.1758 76.7535 38.0762 76.232 37.877C75.7164 37.6777 75.274 37.3877 74.9048 37.0068C74.5357 36.626 74.2486 36.1572 74.0435 35.6006C73.8443 35.0381 73.7447 34.3994 73.7447 33.6846L73.7535 25.2031H76.2232L76.232 33.6846C76.2379 34.5107 76.3873 35.1348 76.6802 35.5566C76.9791 35.9785 77.4127 36.1895 77.981 36.1895C78.5845 36.1895 79.0445 35.9785 79.3609 35.5566C79.6832 35.1348 79.8472 34.5107 79.8531 33.6846L79.8619 25.2031H82.314ZM92.6542 32.3926H87.3983V36.0049H93.5419V38H84.9198V25.2031H93.5155V27.2158H87.3983V30.4414H92.6542V32.3926ZM102.414 34.6602C102.414 34.4316 102.373 34.2178 102.291 34.0186C102.215 33.8193 102.08 33.6348 101.887 33.4648C101.699 33.2891 101.45 33.1309 101.14 32.9902C100.835 32.8438 100.454 32.709 99.9973 32.5859C99.4406 32.4336 98.9074 32.2432 98.3977 32.0146C97.8938 31.7861 97.4484 31.5107 97.0617 31.1885C96.675 30.8662 96.3645 30.4912 96.1301 30.0635C95.9016 29.6357 95.7873 29.1436 95.7873 28.5869C95.7873 28.0479 95.9016 27.5586 96.1301 27.1191C96.3586 26.6797 96.675 26.3047 97.0793 25.9941C97.4836 25.6836 97.9611 25.4463 98.5119 25.2822C99.0627 25.1123 99.6604 25.0273 100.305 25.0273C100.973 25.0273 101.582 25.124 102.133 25.3174C102.69 25.5107 103.167 25.7832 103.566 26.1348C103.964 26.4805 104.275 26.8936 104.497 27.374C104.72 27.8545 104.831 28.3818 104.831 28.9561H102.423C102.411 28.6689 102.359 28.4053 102.265 28.165C102.177 27.9248 102.042 27.7197 101.861 27.5498C101.685 27.374 101.462 27.2393 101.193 27.1455C100.929 27.0459 100.618 26.9961 100.261 26.9961C99.9328 26.9961 99.6398 27.0371 99.382 27.1191C99.1301 27.1953 98.9162 27.3066 98.7404 27.4531C98.5647 27.5938 98.4299 27.7637 98.3361 27.9629C98.2482 28.1562 98.2043 28.3672 98.2043 28.5957C98.2043 28.8359 98.2629 29.0527 98.3801 29.2461C98.5031 29.4395 98.6789 29.6152 98.9074 29.7734C99.1359 29.9258 99.4113 30.0664 99.7336 30.1953C100.062 30.3242 100.431 30.4443 100.841 30.5557C101.427 30.7256 101.966 30.9336 102.458 31.1797C102.95 31.4258 103.372 31.7188 103.724 32.0586C104.081 32.3926 104.357 32.7764 104.55 33.21C104.749 33.6377 104.849 34.1152 104.849 34.6426C104.849 35.2051 104.735 35.7061 104.506 36.1455C104.283 36.5791 103.973 36.9482 103.574 37.2529C103.176 37.5518 102.701 37.7803 102.151 37.9385C101.6 38.0908 100.999 38.167 100.349 38.167C99.9445 38.167 99.5402 38.1289 99.1359 38.0527C98.7375 37.9824 98.3537 37.8711 97.9846 37.7188C97.6213 37.5664 97.2814 37.376 96.965 37.1475C96.6486 36.9189 96.3732 36.6523 96.1389 36.3477C95.9104 36.043 95.7287 35.6973 95.5939 35.3105C95.465 34.9238 95.4006 34.4961 95.4006 34.0273H97.8264C97.8381 34.4141 97.9055 34.7451 98.0285 35.0205C98.1516 35.2959 98.3215 35.5215 98.5383 35.6973C98.7609 35.873 99.0246 36.002 99.3293 36.084C99.6398 36.166 99.9797 36.207 100.349 36.207C100.677 36.207 100.967 36.1689 101.219 36.0928C101.477 36.0166 101.694 35.9111 101.869 35.7764C102.045 35.6416 102.18 35.4805 102.274 35.293C102.367 35.0996 102.414 34.8887 102.414 34.6602ZM116.165 27.2158H112.218V38H109.74V27.2158H105.846V25.2031H116.165V27.2158ZM135.386 34.6602C135.386 34.4316 135.345 34.2178 135.263 34.0186C135.187 33.8193 135.052 33.6348 134.859 33.4648C134.671 33.2891 134.422 33.1309 134.111 32.9902C133.807 32.8438 133.426 32.709 132.969 32.5859C132.412 32.4336 131.879 32.2432 131.369 32.0146C130.865 31.7861 130.42 31.5107 130.033 31.1885C129.647 30.8662 129.336 30.4912 129.102 30.0635C128.873 29.6357 128.759 29.1436 128.759 28.5869C128.759 28.0479 128.873 27.5586 129.102 27.1191C129.33 26.6797 129.647 26.3047 130.051 25.9941C130.455 25.6836 130.933 25.4463 131.484 25.2822C132.034 25.1123 132.632 25.0273 133.277 25.0273C133.944 25.0273 134.554 25.124 135.105 25.3174C135.661 25.5107 136.139 25.7832 136.537 26.1348C136.936 26.4805 137.246 26.8936 137.469 27.374C137.692 27.8545 137.803 28.3818 137.803 28.9561H135.395C135.383 28.6689 135.33 28.4053 135.236 28.165C135.149 27.9248 135.014 27.7197 134.832 27.5498C134.656 27.374 134.434 27.2393 134.164 27.1455C133.901 27.0459 133.59 26.9961 133.233 26.9961C132.904 26.9961 132.611 27.0371 132.354 27.1191C132.102 27.1953 131.888 27.3066 131.712 27.4531C131.536 27.5938 131.402 27.7637 131.308 27.9629C131.22 28.1562 131.176 28.3672 131.176 28.5957C131.176 28.8359 131.235 29.0527 131.352 29.2461C131.475 29.4395 131.651 29.6152 131.879 29.7734C132.108 29.9258 132.383 30.0664 132.705 30.1953C133.033 30.3242 133.403 30.4443 133.813 30.5557C134.399 30.7256 134.938 30.9336 135.43 31.1797C135.922 31.4258 136.344 31.7188 136.695 32.0586C137.053 32.3926 137.328 32.7764 137.522 33.21C137.721 33.6377 137.82 34.1152 137.82 34.6426C137.82 35.2051 137.706 35.7061 137.478 36.1455C137.255 36.5791 136.944 36.9482 136.546 37.2529C136.148 37.5518 135.673 37.7803 135.122 37.9385C134.571 38.0908 133.971 38.167 133.32 38.167C132.916 38.167 132.512 38.1289 132.108 38.0527C131.709 37.9824 131.325 37.8711 130.956 37.7188C130.593 37.5664 130.253 37.376 129.937 37.1475C129.62 36.9189 129.345 36.6523 129.111 36.3477C128.882 36.043 128.7 35.6973 128.566 35.3105C128.437 34.9238 128.372 34.4961 128.372 34.0273H130.798C130.81 34.4141 130.877 34.7451 131 35.0205C131.123 35.2959 131.293 35.5215 131.51 35.6973C131.733 35.873 131.996 36.002 132.301 36.084C132.611 36.166 132.951 36.207 133.32 36.207C133.649 36.207 133.939 36.1689 134.191 36.0928C134.448 36.0166 134.665 35.9111 134.841 35.7764C135.017 35.6416 135.152 35.4805 135.245 35.293C135.339 35.0996 135.386 34.8887 135.386 34.6602ZM144.1 31.1006L146.623 25.2031H149.338L145.313 33.5703L145.304 38H142.843L142.834 33.4648L138.871 25.2031H141.578L144.1 31.1006ZM153.368 36.0049H159.362V38H150.889V25.2031H153.368V36.0049ZM164.359 36.0049H170.353V38H161.88V25.2031H164.359V36.0049ZM178.997 35.3281H175.156L174.4 38H171.798L175.991 25.2031H178.232L182.345 38H179.744L178.997 35.3281ZM175.762 33.2275H178.416L177.107 28.5166L175.762 33.2275ZM183.677 38V25.2031H187.974C188.672 25.2031 189.304 25.2734 189.873 25.4141C190.447 25.5547 190.936 25.7686 191.341 26.0557C191.745 26.3428 192.055 26.7061 192.272 27.1455C192.495 27.585 192.606 28.1035 192.606 28.7012C192.6 29.2988 192.439 29.835 192.123 30.3096C191.812 30.7842 191.352 31.1445 190.743 31.3906C191.112 31.4844 191.431 31.625 191.701 31.8125C191.97 32 192.193 32.2227 192.369 32.4805C192.551 32.7324 192.682 33.0107 192.764 33.3154C192.852 33.6143 192.896 33.9248 192.896 34.2471C192.896 34.8623 192.791 35.4043 192.58 35.873C192.369 36.3418 192.067 36.7344 191.675 37.0508C191.282 37.3672 190.804 37.6045 190.242 37.7627C189.679 37.9209 189.047 38 188.344 38H183.677ZM186.155 32.3574V36.0049H188.352C189.026 35.999 189.539 35.835 189.89 35.5127C190.248 35.1846 190.427 34.7568 190.427 34.2295C190.432 33.6436 190.274 33.1865 189.952 32.8584C189.63 32.5303 189.132 32.3633 188.458 32.3574H186.155ZM186.155 30.5732H187.992C188.677 30.5674 189.205 30.4238 189.574 30.1426C189.943 29.8613 190.131 29.4482 190.136 28.9033C190.136 28.3057 189.952 27.8779 189.583 27.6201C189.214 27.3564 188.68 27.2217 187.983 27.2158H186.155V30.5732ZM203.21 25.2031L203.219 33.6846C203.219 34.3994 203.119 35.0352 202.92 35.5918C202.727 36.1484 202.442 36.6201 202.067 37.0068C201.698 37.3877 201.244 37.6777 200.705 37.877C200.172 38.0762 199.563 38.1758 198.877 38.1758C198.233 38.1758 197.65 38.0762 197.128 37.877C196.612 37.6777 196.17 37.3877 195.801 37.0068C195.432 36.626 195.145 36.1572 194.94 35.6006C194.74 35.0381 194.641 34.3994 194.641 33.6846L194.65 25.2031H197.119L197.128 33.6846C197.134 34.5107 197.283 35.1348 197.576 35.5566C197.875 35.9785 198.309 36.1895 198.877 36.1895C199.481 36.1895 199.941 35.9785 200.257 35.5566C200.579 35.1348 200.743 34.5107 200.749 33.6846L200.758 25.2031H203.21ZM212.32 34.6602C212.32 34.4316 212.279 34.2178 212.197 34.0186C212.121 33.8193 211.986 33.6348 211.792 33.4648C211.605 33.2891 211.356 33.1309 211.045 32.9902C210.741 32.8438 210.36 32.709 209.903 32.5859C209.346 32.4336 208.813 32.2432 208.303 32.0146C207.799 31.7861 207.354 31.5107 206.967 31.1885C206.58 30.8662 206.27 30.4912 206.036 30.0635C205.807 29.6357 205.693 29.1436 205.693 28.5869C205.693 28.0479 205.807 27.5586 206.036 27.1191C206.264 26.6797 206.58 26.3047 206.985 25.9941C207.389 25.6836 207.867 25.4463 208.417 25.2822C208.968 25.1123 209.566 25.0273 210.21 25.0273C210.878 25.0273 211.488 25.124 212.038 25.3174C212.595 25.5107 213.073 25.7832 213.471 26.1348C213.87 26.4805 214.18 26.8936 214.403 27.374C214.625 27.8545 214.737 28.3818 214.737 28.9561H212.329C212.317 28.6689 212.264 28.4053 212.17 28.165C212.082 27.9248 211.948 27.7197 211.766 27.5498C211.59 27.374 211.368 27.2393 211.098 27.1455C210.834 27.0459 210.524 26.9961 210.166 26.9961C209.838 26.9961 209.545 27.0371 209.288 27.1191C209.036 27.1953 208.822 27.3066 208.646 27.4531C208.47 27.5938 208.335 27.7637 208.242 27.9629C208.154 28.1562 208.11 28.3672 208.11 28.5957C208.11 28.8359 208.168 29.0527 208.286 29.2461C208.409 29.4395 208.584 29.6152 208.813 29.7734C209.041 29.9258 209.317 30.0664 209.639 30.1953C209.967 30.3242 210.336 30.4443 210.746 30.5557C211.332 30.7256 211.871 30.9336 212.364 31.1797C212.856 31.4258 213.278 31.7188 213.629 32.0586C213.987 32.3926 214.262 32.7764 214.455 33.21C214.655 33.6377 214.754 34.1152 214.754 34.6426C214.754 35.2051 214.64 35.7061 214.412 36.1455C214.189 36.5791 213.878 36.9482 213.48 37.2529C213.081 37.5518 212.607 37.7803 212.056 37.9385C211.505 38.0908 210.905 38.167 210.254 38.167C209.85 38.167 209.446 38.1289 209.041 38.0527C208.643 37.9824 208.259 37.8711 207.89 37.7188C207.527 37.5664 207.187 37.376 206.871 37.1475C206.554 36.9189 206.279 36.6523 206.044 36.3477C205.816 36.043 205.634 35.6973 205.499 35.3105C205.371 34.9238 205.306 34.4961 205.306 34.0273H207.732C207.744 34.4141 207.811 34.7451 207.934 35.0205C208.057 35.2959 208.227 35.5215 208.444 35.6973C208.666 35.873 208.93 36.002 209.235 36.084C209.545 36.166 209.885 36.207 210.254 36.207C210.582 36.207 210.872 36.1689 211.124 36.0928C211.382 36.0166 211.599 35.9111 211.775 35.7764C211.951 35.6416 212.085 35.4805 212.179 35.293C212.273 35.0996 212.32 34.8887 212.32 34.6602Z" fill="white"/>
</svg>
