<svg width="1348" height="899" viewBox="0 0 1348 899" fill="none" xmlns="http://www.w3.org/2000/svg">
<rect width="1348" height="836" fill="#354344"/>
<circle cx="2" cy="2" r="2" fill="white" fill-opacity="0.1"/>
<circle cx="66" cy="2" r="2" fill="white" fill-opacity="0.1"/>
<circle cx="130" cy="2" r="2" fill="white" fill-opacity="0.1"/>
<circle cx="194" cy="2" r="2" fill="white" fill-opacity="0.1"/>
<circle cx="258" cy="2" r="2" fill="white" fill-opacity="0.1"/>
<circle cx="322" cy="2" r="2" fill="white" fill-opacity="0.1"/>
<circle cx="386" cy="2" r="2" fill="white" fill-opacity="0.1"/>
<circle cx="450" cy="2" r="2" fill="white" fill-opacity="0.1"/>
<circle cx="514" cy="2" r="2" fill="white" fill-opacity="0.1"/>
<circle cx="578" cy="2" r="2" fill="white" fill-opacity="0.1"/>
<circle cx="642" cy="2" r="2" fill="white" fill-opacity="0.1"/>
<circle cx="706" cy="2" r="2" fill="white" fill-opacity="0.1"/>
<circle cx="770" cy="2" r="2" fill="white" fill-opacity="0.1"/>
<circle cx="834" cy="2" r="2" fill="white" fill-opacity="0.1"/>
<circle cx="898" cy="2" r="2" fill="white" fill-opacity="0.1"/>
<circle cx="962" cy="2" r="2" fill="white" fill-opacity="0.1"/>
<circle cx="1026" cy="2" r="2" fill="white" fill-opacity="0.1"/>
<circle cx="1090" cy="2" r="2" fill="white" fill-opacity="0.1"/>
<circle cx="1154" cy="2" r="2" fill="white" fill-opacity="0.1"/>
<circle cx="1218" cy="2" r="2" fill="white" fill-opacity="0.1"/>
<circle cx="1282" cy="2" r="2" fill="white" fill-opacity="0.1"/>
<circle cx="1346" cy="2" r="2" fill="white" fill-opacity="0.1"/>
<circle cx="2" cy="66" r="2" fill="white" fill-opacity="0.1"/>
<circle cx="66" cy="66" r="2" fill="white" fill-opacity="0.1"/>
<circle cx="130" cy="66" r="2" fill="white" fill-opacity="0.1"/>
<circle cx="194" cy="66" r="2" fill="white" fill-opacity="0.1"/>
<circle cx="258" cy="66" r="2" fill="white" fill-opacity="0.1"/>
<circle cx="322" cy="66" r="2" fill="white" fill-opacity="0.1"/>
<circle cx="386" cy="66" r="2" fill="white" fill-opacity="0.1"/>
<circle cx="450" cy="66" r="2" fill="white" fill-opacity="0.1"/>
<circle cx="514" cy="66" r="2" fill="white" fill-opacity="0.1"/>
<circle cx="578" cy="66" r="2" fill="white" fill-opacity="0.1"/>
<circle cx="642" cy="66" r="2" fill="white" fill-opacity="0.1"/>
<circle cx="706" cy="66" r="2" fill="white" fill-opacity="0.1"/>
<circle cx="770" cy="66" r="2" fill="white" fill-opacity="0.1"/>
<circle cx="834" cy="66" r="2" fill="white" fill-opacity="0.1"/>
<circle cx="898" cy="66" r="2" fill="white" fill-opacity="0.1"/>
<circle cx="962" cy="66" r="2" fill="white" fill-opacity="0.1"/>
<circle cx="1026" cy="66" r="2" fill="white" fill-opacity="0.1"/>
<circle cx="1090" cy="66" r="2" fill="white" fill-opacity="0.1"/>
<circle cx="1154" cy="66" r="2" fill="white" fill-opacity="0.1"/>
<circle cx="1218" cy="66" r="2" fill="white" fill-opacity="0.1"/>
<circle cx="1282" cy="66" r="2" fill="white" fill-opacity="0.1"/>
<circle cx="1346" cy="66" r="2" fill="white" fill-opacity="0.1"/>
<circle cx="2" cy="130" r="2" fill="white" fill-opacity="0.1"/>
<circle cx="66" cy="130" r="2" fill="white" fill-opacity="0.1"/>
<circle cx="130" cy="130" r="2" fill="white" fill-opacity="0.1"/>
<circle cx="194" cy="130" r="2" fill="white" fill-opacity="0.1"/>
<circle cx="258" cy="130" r="2" fill="white" fill-opacity="0.1"/>
<circle cx="322" cy="130" r="2" fill="white" fill-opacity="0.1"/>
<circle cx="386" cy="130" r="2" fill="white" fill-opacity="0.1"/>
<circle cx="450" cy="130" r="2" fill="white" fill-opacity="0.1"/>
<circle cx="514" cy="130" r="2" fill="white" fill-opacity="0.1"/>
<circle cx="578" cy="130" r="2" fill="white" fill-opacity="0.1"/>
<circle cx="642" cy="130" r="2" fill="white" fill-opacity="0.1"/>
<circle cx="706" cy="130" r="2" fill="white" fill-opacity="0.1"/>
<circle cx="770" cy="130" r="2" fill="white" fill-opacity="0.1"/>
<circle cx="834" cy="130" r="2" fill="white" fill-opacity="0.1"/>
<circle cx="898" cy="130" r="2" fill="white" fill-opacity="0.1"/>
<circle cx="962" cy="130" r="2" fill="white" fill-opacity="0.1"/>
<circle cx="1026" cy="130" r="2" fill="white" fill-opacity="0.1"/>
<circle cx="1090" cy="130" r="2" fill="white" fill-opacity="0.1"/>
<circle cx="1154" cy="130" r="2" fill="white" fill-opacity="0.1"/>
<circle cx="1218" cy="130" r="2" fill="white" fill-opacity="0.1"/>
<circle cx="1282" cy="130" r="2" fill="white" fill-opacity="0.1"/>
<circle cx="1346" cy="130" r="2" fill="white" fill-opacity="0.1"/>
<circle cx="2" cy="194" r="2" fill="white" fill-opacity="0.1"/>
<circle cx="66" cy="194" r="2" fill="white" fill-opacity="0.1"/>
<circle cx="130" cy="194" r="2" fill="white" fill-opacity="0.1"/>
<circle cx="194" cy="194" r="2" fill="white" fill-opacity="0.1"/>
<circle cx="258" cy="194" r="2" fill="white" fill-opacity="0.1"/>
<circle cx="322" cy="194" r="2" fill="white" fill-opacity="0.1"/>
<circle cx="386" cy="194" r="2" fill="white" fill-opacity="0.1"/>
<circle cx="450" cy="194" r="2" fill="white" fill-opacity="0.1"/>
<circle cx="514" cy="194" r="2" fill="white" fill-opacity="0.1"/>
<circle cx="578" cy="194" r="2" fill="white" fill-opacity="0.1"/>
<circle cx="642" cy="194" r="2" fill="white" fill-opacity="0.1"/>
<circle cx="706" cy="194" r="2" fill="white" fill-opacity="0.1"/>
<circle cx="770" cy="194" r="2" fill="white" fill-opacity="0.1"/>
<circle cx="834" cy="194" r="2" fill="white" fill-opacity="0.1"/>
<circle cx="898" cy="194" r="2" fill="white" fill-opacity="0.1"/>
<circle cx="962" cy="194" r="2" fill="white" fill-opacity="0.1"/>
<circle cx="1026" cy="194" r="2" fill="white" fill-opacity="0.1"/>
<circle cx="1090" cy="194" r="2" fill="white" fill-opacity="0.1"/>
<circle cx="1154" cy="194" r="2" fill="white" fill-opacity="0.1"/>
<circle cx="1218" cy="194" r="2" fill="white" fill-opacity="0.1"/>
<circle cx="1282" cy="194" r="2" fill="white" fill-opacity="0.1"/>
<circle cx="1346" cy="194" r="2" fill="white" fill-opacity="0.1"/>
<circle cx="2" cy="258" r="2" fill="white" fill-opacity="0.1"/>
<circle cx="66" cy="258" r="2" fill="white" fill-opacity="0.1"/>
<circle cx="130" cy="258" r="2" fill="white" fill-opacity="0.1"/>
<circle cx="194" cy="258" r="2" fill="white" fill-opacity="0.1"/>
<circle cx="258" cy="258" r="2" fill="white" fill-opacity="0.1"/>
<circle cx="322" cy="258" r="2" fill="white" fill-opacity="0.1"/>
<circle cx="386" cy="258" r="2" fill="white" fill-opacity="0.1"/>
<circle cx="450" cy="258" r="2" fill="white" fill-opacity="0.1"/>
<circle cx="514" cy="258" r="2" fill="white" fill-opacity="0.1"/>
<circle cx="578" cy="258" r="2" fill="white" fill-opacity="0.1"/>
<circle cx="642" cy="258" r="2" fill="white" fill-opacity="0.1"/>
<circle cx="706" cy="258" r="2" fill="white" fill-opacity="0.1"/>
<circle cx="770" cy="258" r="2" fill="white" fill-opacity="0.1"/>
<circle cx="834" cy="258" r="2" fill="white" fill-opacity="0.1"/>
<circle cx="898" cy="258" r="2" fill="white" fill-opacity="0.1"/>
<circle cx="962" cy="258" r="2" fill="white" fill-opacity="0.1"/>
<circle cx="1026" cy="258" r="2" fill="white" fill-opacity="0.1"/>
<circle cx="1090" cy="258" r="2" fill="white" fill-opacity="0.1"/>
<circle cx="1154" cy="258" r="2" fill="white" fill-opacity="0.1"/>
<circle cx="1218" cy="258" r="2" fill="white" fill-opacity="0.1"/>
<circle cx="1282" cy="258" r="2" fill="white" fill-opacity="0.1"/>
<circle cx="1346" cy="258" r="2" fill="white" fill-opacity="0.1"/>
<circle cx="2" cy="322" r="2" fill="white" fill-opacity="0.1"/>
<circle cx="66" cy="322" r="2" fill="white" fill-opacity="0.1"/>
<circle cx="130" cy="322" r="2" fill="white" fill-opacity="0.1"/>
<circle cx="194" cy="322" r="2" fill="white" fill-opacity="0.1"/>
<circle cx="258" cy="322" r="2" fill="white" fill-opacity="0.1"/>
<circle cx="322" cy="322" r="2" fill="white" fill-opacity="0.1"/>
<circle cx="386" cy="322" r="2" fill="white" fill-opacity="0.1"/>
<circle cx="450" cy="322" r="2" fill="white" fill-opacity="0.1"/>
<circle cx="514" cy="322" r="2" fill="white" fill-opacity="0.1"/>
<circle cx="578" cy="322" r="2" fill="white" fill-opacity="0.1"/>
<circle cx="642" cy="322" r="2" fill="white" fill-opacity="0.1"/>
<circle cx="706" cy="322" r="2" fill="white" fill-opacity="0.1"/>
<circle cx="770" cy="322" r="2" fill="white" fill-opacity="0.1"/>
<circle cx="834" cy="322" r="2" fill="white" fill-opacity="0.1"/>
<circle cx="898" cy="322" r="2" fill="white" fill-opacity="0.1"/>
<circle cx="962" cy="322" r="2" fill="white" fill-opacity="0.1"/>
<circle cx="1026" cy="322" r="2" fill="white" fill-opacity="0.1"/>
<circle cx="1090" cy="322" r="2" fill="white" fill-opacity="0.1"/>
<circle cx="1154" cy="322" r="2" fill="white" fill-opacity="0.1"/>
<circle cx="1218" cy="322" r="2" fill="white" fill-opacity="0.1"/>
<circle cx="1282" cy="322" r="2" fill="white" fill-opacity="0.1"/>
<circle cx="1346" cy="322" r="2" fill="white" fill-opacity="0.1"/>
<circle cx="2" cy="386" r="2" fill="white" fill-opacity="0.1"/>
<circle cx="66" cy="386" r="2" fill="white" fill-opacity="0.1"/>
<circle cx="130" cy="386" r="2" fill="white" fill-opacity="0.1"/>
<circle cx="194" cy="386" r="2" fill="white" fill-opacity="0.1"/>
<circle cx="258" cy="386" r="2" fill="white" fill-opacity="0.1"/>
<circle cx="322" cy="386" r="2" fill="white" fill-opacity="0.1"/>
<circle cx="386" cy="386" r="2" fill="white" fill-opacity="0.1"/>
<circle cx="450" cy="386" r="2" fill="white" fill-opacity="0.1"/>
<circle cx="514" cy="386" r="2" fill="white" fill-opacity="0.1"/>
<circle cx="578" cy="386" r="2" fill="white" fill-opacity="0.1"/>
<circle cx="642" cy="386" r="2" fill="white" fill-opacity="0.1"/>
<circle cx="706" cy="386" r="2" fill="white" fill-opacity="0.1"/>
<circle cx="770" cy="386" r="2" fill="white" fill-opacity="0.1"/>
<circle cx="834" cy="386" r="2" fill="white" fill-opacity="0.1"/>
<circle cx="898" cy="386" r="2" fill="white" fill-opacity="0.1"/>
<circle cx="962" cy="386" r="2" fill="white" fill-opacity="0.1"/>
<circle cx="1026" cy="386" r="2" fill="white" fill-opacity="0.1"/>
<circle cx="1090" cy="386" r="2" fill="white" fill-opacity="0.1"/>
<circle cx="1154" cy="386" r="2" fill="white" fill-opacity="0.1"/>
<circle cx="1218" cy="386" r="2" fill="white" fill-opacity="0.1"/>
<circle cx="1282" cy="386" r="2" fill="white" fill-opacity="0.1"/>
<circle cx="1346" cy="386" r="2" fill="white" fill-opacity="0.1"/>
<circle cx="2" cy="450" r="2" fill="white" fill-opacity="0.1"/>
<circle cx="66" cy="450" r="2" fill="white" fill-opacity="0.1"/>
<circle cx="130" cy="450" r="2" fill="white" fill-opacity="0.1"/>
<circle cx="194" cy="450" r="2" fill="white" fill-opacity="0.1"/>
<circle cx="258" cy="450" r="2" fill="white" fill-opacity="0.1"/>
<circle cx="322" cy="450" r="2" fill="white" fill-opacity="0.1"/>
<circle cx="386" cy="450" r="2" fill="white" fill-opacity="0.1"/>
<circle cx="450" cy="450" r="2" fill="white" fill-opacity="0.1"/>
<circle cx="514" cy="450" r="2" fill="white" fill-opacity="0.1"/>
<circle cx="578" cy="450" r="2" fill="white" fill-opacity="0.1"/>
<circle cx="642" cy="450" r="2" fill="white" fill-opacity="0.1"/>
<circle cx="706" cy="450" r="2" fill="white" fill-opacity="0.1"/>
<circle cx="770" cy="450" r="2" fill="white" fill-opacity="0.1"/>
<circle cx="834" cy="450" r="2" fill="white" fill-opacity="0.1"/>
<circle cx="898" cy="450" r="2" fill="white" fill-opacity="0.1"/>
<circle cx="962" cy="450" r="2" fill="white" fill-opacity="0.1"/>
<circle cx="1026" cy="450" r="2" fill="white" fill-opacity="0.1"/>
<circle cx="1090" cy="450" r="2" fill="white" fill-opacity="0.1"/>
<circle cx="1154" cy="450" r="2" fill="white" fill-opacity="0.1"/>
<circle cx="1218" cy="450" r="2" fill="white" fill-opacity="0.1"/>
<circle cx="1282" cy="450" r="2" fill="white" fill-opacity="0.1"/>
<circle cx="1346" cy="450" r="2" fill="white" fill-opacity="0.1"/>
<circle cx="2" cy="514" r="2" fill="white" fill-opacity="0.1"/>
<circle cx="66" cy="514" r="2" fill="white" fill-opacity="0.1"/>
<circle cx="130" cy="514" r="2" fill="white" fill-opacity="0.1"/>
<circle cx="194" cy="514" r="2" fill="white" fill-opacity="0.1"/>
<circle cx="258" cy="514" r="2" fill="white" fill-opacity="0.1"/>
<circle cx="322" cy="514" r="2" fill="white" fill-opacity="0.1"/>
<circle cx="386" cy="514" r="2" fill="white" fill-opacity="0.1"/>
<circle cx="450" cy="514" r="2" fill="white" fill-opacity="0.1"/>
<circle cx="514" cy="514" r="2" fill="white" fill-opacity="0.1"/>
<circle cx="578" cy="514" r="2" fill="white" fill-opacity="0.1"/>
<circle cx="642" cy="514" r="2" fill="white" fill-opacity="0.1"/>
<circle cx="706" cy="514" r="2" fill="white" fill-opacity="0.1"/>
<circle cx="770" cy="514" r="2" fill="white" fill-opacity="0.1"/>
<circle cx="834" cy="514" r="2" fill="white" fill-opacity="0.1"/>
<circle cx="898" cy="514" r="2" fill="white" fill-opacity="0.1"/>
<circle cx="962" cy="514" r="2" fill="white" fill-opacity="0.1"/>
<circle cx="1026" cy="514" r="2" fill="white" fill-opacity="0.1"/>
<circle cx="1090" cy="514" r="2" fill="white" fill-opacity="0.1"/>
<circle cx="1154" cy="514" r="2" fill="white" fill-opacity="0.1"/>
<circle cx="1218" cy="514" r="2" fill="white" fill-opacity="0.1"/>
<circle cx="1282" cy="514" r="2" fill="white" fill-opacity="0.1"/>
<circle cx="1346" cy="514" r="2" fill="white" fill-opacity="0.1"/>
<circle cx="2" cy="578" r="2" fill="white" fill-opacity="0.1"/>
<circle cx="66" cy="578" r="2" fill="white" fill-opacity="0.1"/>
<circle cx="130" cy="578" r="2" fill="white" fill-opacity="0.1"/>
<circle cx="194" cy="578" r="2" fill="white" fill-opacity="0.1"/>
<circle cx="258" cy="578" r="2" fill="white" fill-opacity="0.1"/>
<circle cx="322" cy="578" r="2" fill="white" fill-opacity="0.1"/>
<circle cx="386" cy="578" r="2" fill="white" fill-opacity="0.1"/>
<circle cx="450" cy="578" r="2" fill="white" fill-opacity="0.1"/>
<circle cx="514" cy="578" r="2" fill="white" fill-opacity="0.1"/>
<circle cx="578" cy="578" r="2" fill="white" fill-opacity="0.1"/>
<circle cx="642" cy="578" r="2" fill="white" fill-opacity="0.1"/>
<circle cx="706" cy="578" r="2" fill="white" fill-opacity="0.1"/>
<circle cx="770" cy="578" r="2" fill="white" fill-opacity="0.1"/>
<circle cx="834" cy="578" r="2" fill="white" fill-opacity="0.1"/>
<circle cx="898" cy="578" r="2" fill="white" fill-opacity="0.1"/>
<circle cx="962" cy="578" r="2" fill="white" fill-opacity="0.1"/>
<circle cx="1026" cy="578" r="2" fill="white" fill-opacity="0.1"/>
<circle cx="1090" cy="578" r="2" fill="white" fill-opacity="0.1"/>
<circle cx="1154" cy="578" r="2" fill="white" fill-opacity="0.1"/>
<circle cx="1218" cy="578" r="2" fill="white" fill-opacity="0.1"/>
<circle cx="1282" cy="578" r="2" fill="white" fill-opacity="0.1"/>
<circle cx="1346" cy="578" r="2" fill="white" fill-opacity="0.1"/>
<circle cx="2" cy="642" r="2" fill="white" fill-opacity="0.1"/>
<circle cx="66" cy="642" r="2" fill="white" fill-opacity="0.1"/>
<circle cx="130" cy="642" r="2" fill="white" fill-opacity="0.1"/>
<circle cx="194" cy="642" r="2" fill="white" fill-opacity="0.1"/>
<circle cx="258" cy="642" r="2" fill="white" fill-opacity="0.1"/>
<circle cx="322" cy="642" r="2" fill="white" fill-opacity="0.1"/>
<circle cx="386" cy="642" r="2" fill="white" fill-opacity="0.1"/>
<circle cx="450" cy="642" r="2" fill="white" fill-opacity="0.1"/>
<circle cx="514" cy="642" r="2" fill="white" fill-opacity="0.1"/>
<circle cx="578" cy="642" r="2" fill="white" fill-opacity="0.1"/>
<circle cx="642" cy="642" r="2" fill="white" fill-opacity="0.1"/>
<circle cx="706" cy="642" r="2" fill="white" fill-opacity="0.1"/>
<circle cx="770" cy="642" r="2" fill="white" fill-opacity="0.1"/>
<circle cx="834" cy="642" r="2" fill="white" fill-opacity="0.1"/>
<circle cx="898" cy="642" r="2" fill="white" fill-opacity="0.1"/>
<circle cx="962" cy="642" r="2" fill="white" fill-opacity="0.1"/>
<circle cx="1026" cy="642" r="2" fill="white" fill-opacity="0.1"/>
<circle cx="1090" cy="642" r="2" fill="white" fill-opacity="0.1"/>
<circle cx="1154" cy="642" r="2" fill="white" fill-opacity="0.1"/>
<circle cx="1218" cy="642" r="2" fill="white" fill-opacity="0.1"/>
<circle cx="1282" cy="642" r="2" fill="white" fill-opacity="0.1"/>
<circle cx="1346" cy="642" r="2" fill="white" fill-opacity="0.1"/>
<circle cx="2" cy="706" r="2" fill="white" fill-opacity="0.1"/>
<circle cx="66" cy="706" r="2" fill="white" fill-opacity="0.1"/>
<circle cx="130" cy="706" r="2" fill="white" fill-opacity="0.1"/>
<circle cx="194" cy="706" r="2" fill="white" fill-opacity="0.1"/>
<circle cx="258" cy="706" r="2" fill="white" fill-opacity="0.1"/>
<circle cx="322" cy="706" r="2" fill="white" fill-opacity="0.1"/>
<circle cx="386" cy="706" r="2" fill="white" fill-opacity="0.1"/>
<circle cx="450" cy="706" r="2" fill="white" fill-opacity="0.1"/>
<circle cx="514" cy="706" r="2" fill="white" fill-opacity="0.1"/>
<circle cx="578" cy="706" r="2" fill="white" fill-opacity="0.1"/>
<circle cx="642" cy="706" r="2" fill="white" fill-opacity="0.1"/>
<circle cx="706" cy="706" r="2" fill="white" fill-opacity="0.1"/>
<circle cx="770" cy="706" r="2" fill="white" fill-opacity="0.1"/>
<circle cx="834" cy="706" r="2" fill="white" fill-opacity="0.1"/>
<circle cx="898" cy="706" r="2" fill="white" fill-opacity="0.1"/>
<circle cx="962" cy="706" r="2" fill="white" fill-opacity="0.1"/>
<circle cx="1026" cy="706" r="2" fill="white" fill-opacity="0.1"/>
<circle cx="1090" cy="706" r="2" fill="white" fill-opacity="0.1"/>
<circle cx="1154" cy="706" r="2" fill="white" fill-opacity="0.1"/>
<circle cx="1218" cy="706" r="2" fill="white" fill-opacity="0.1"/>
<circle cx="1282" cy="706" r="2" fill="white" fill-opacity="0.1"/>
<circle cx="1346" cy="706" r="2" fill="white" fill-opacity="0.1"/>
<circle cx="2" cy="770" r="2" fill="white" fill-opacity="0.1"/>
<circle cx="66" cy="770" r="2" fill="white" fill-opacity="0.1"/>
<circle cx="130" cy="770" r="2" fill="white" fill-opacity="0.1"/>
<circle cx="194" cy="770" r="2" fill="white" fill-opacity="0.1"/>
<circle cx="258" cy="770" r="2" fill="white" fill-opacity="0.1"/>
<circle cx="322" cy="770" r="2" fill="white" fill-opacity="0.1"/>
<circle cx="386" cy="770" r="2" fill="white" fill-opacity="0.1"/>
<circle cx="450" cy="770" r="2" fill="white" fill-opacity="0.1"/>
<circle cx="514" cy="770" r="2" fill="white" fill-opacity="0.1"/>
<circle cx="578" cy="770" r="2" fill="white" fill-opacity="0.1"/>
<circle cx="642" cy="770" r="2" fill="white" fill-opacity="0.1"/>
<circle cx="706" cy="770" r="2" fill="white" fill-opacity="0.1"/>
<circle cx="770" cy="770" r="2" fill="white" fill-opacity="0.1"/>
<circle cx="834" cy="770" r="2" fill="white" fill-opacity="0.1"/>
<circle cx="898" cy="770" r="2" fill="white" fill-opacity="0.1"/>
<circle cx="962" cy="770" r="2" fill="white" fill-opacity="0.1"/>
<circle cx="1026" cy="770" r="2" fill="white" fill-opacity="0.1"/>
<circle cx="1090" cy="770" r="2" fill="white" fill-opacity="0.1"/>
<circle cx="1154" cy="770" r="2" fill="white" fill-opacity="0.1"/>
<circle cx="1218" cy="770" r="2" fill="white" fill-opacity="0.1"/>
<circle cx="1282" cy="770" r="2" fill="white" fill-opacity="0.1"/>
<circle cx="1346" cy="770" r="2" fill="white" fill-opacity="0.1"/>
<circle cx="2" cy="834" r="2" fill="white" fill-opacity="0.1"/>
<circle cx="66" cy="834" r="2" fill="white" fill-opacity="0.1"/>
<circle cx="130" cy="834" r="2" fill="white" fill-opacity="0.1"/>
<circle cx="194" cy="834" r="2" fill="white" fill-opacity="0.1"/>
<circle cx="258" cy="834" r="2" fill="white" fill-opacity="0.1"/>
<circle cx="322" cy="834" r="2" fill="white" fill-opacity="0.1"/>
<circle cx="386" cy="834" r="2" fill="white" fill-opacity="0.1"/>
<circle cx="450" cy="834" r="2" fill="white" fill-opacity="0.1"/>
<circle cx="514" cy="834" r="2" fill="white" fill-opacity="0.1"/>
<circle cx="578" cy="834" r="2" fill="white" fill-opacity="0.1"/>
<circle cx="642" cy="834" r="2" fill="white" fill-opacity="0.1"/>
<circle cx="706" cy="834" r="2" fill="white" fill-opacity="0.1"/>
<circle cx="770" cy="834" r="2" fill="white" fill-opacity="0.1"/>
<circle cx="834" cy="834" r="2" fill="white" fill-opacity="0.1"/>
<circle cx="898" cy="834" r="2" fill="white" fill-opacity="0.1"/>
<circle cx="962" cy="834" r="2" fill="white" fill-opacity="0.1"/>
<circle cx="1026" cy="834" r="2" fill="white" fill-opacity="0.1"/>
<circle cx="1090" cy="834" r="2" fill="white" fill-opacity="0.1"/>
<circle cx="1154" cy="834" r="2" fill="white" fill-opacity="0.1"/>
<circle cx="1218" cy="834" r="2" fill="white" fill-opacity="0.1"/>
<circle cx="1282" cy="834" r="2" fill="white" fill-opacity="0.1"/>
<circle cx="1346" cy="834" r="2" fill="white" fill-opacity="0.1"/>
<path d="M808.958 836.544C808.958 820.002 815.53 804.137 827.227 792.439C838.925 780.742 854.79 774.17 871.333 774.17C887.875 774.17 903.74 780.742 915.438 792.439C927.135 804.137 933.707 820.002 933.707 836.544L871.333 836.544L808.958 836.544Z" fill="#EAE3D0"/>
<path d="M971.542 763.211C950.221 777.927 923.927 783.571 898.445 778.901C872.963 774.231 850.38 759.629 835.664 738.309C820.948 716.988 815.304 690.694 819.974 665.212C824.644 639.73 839.246 617.147 860.567 602.431L881.658 632.988C868.441 642.11 859.39 656.109 856.495 671.906C853.6 687.702 857.099 704.001 866.221 717.217C875.343 730.434 889.343 739.485 905.139 742.38C920.935 745.275 937.234 741.777 950.45 732.654L971.542 763.211Z" fill="#97BB9F"/>
<path fill-rule="evenodd" clip-rule="evenodd" d="M696.619 726.507L584.816 836.544L646.013 836.544C646.013 823.123 651.345 810.251 660.835 800.761C670.326 791.27 683.198 785.939 696.619 785.939C710.04 785.939 722.912 791.27 732.402 800.761C741.893 810.251 747.224 823.123 747.224 836.544L696.619 836.544H808.422L696.619 726.507Z" fill="#6E9896"/>
<path d="M927.874 588.813C927.874 608.518 931.725 628.03 939.207 646.235C946.688 664.44 957.654 680.982 971.478 694.915C985.303 708.849 1001.71 719.901 1019.78 727.442C1037.84 734.983 1057.2 738.864 1076.75 738.864L1076.75 588.813L927.874 588.813Z" fill="#4C6767"/>
<path d="M1076.75 738.864C1096.3 738.864 1115.66 734.983 1133.72 727.442C1151.78 719.901 1168.19 708.849 1182.02 694.915C1195.84 680.982 1206.81 664.44 1214.29 646.235C1221.77 628.03 1225.62 608.518 1225.62 588.813H1076.75L1076.75 738.864Z" fill="#6E9896"/>
<path d="M1225.62 588.813C1225.62 569.108 1221.77 549.596 1214.29 531.391C1206.81 513.186 1195.84 496.644 1182.02 482.711C1168.19 468.777 1151.78 457.725 1133.72 450.184C1115.66 442.643 1096.3 438.762 1076.75 438.762L1076.75 588.813H1225.62Z" fill="#97BB9F"/>
<path d="M1076.75 438.762C1057.2 438.762 1037.84 442.643 1019.78 450.184C1001.71 457.725 985.303 468.777 971.478 482.711C957.654 496.644 946.688 513.186 939.207 531.391C931.725 549.596 927.874 569.108 927.874 588.813L1076.75 588.813L1076.75 438.762Z" fill="#EAE3D0"/>
<ellipse cx="918.55" cy="679.492" rx="33.5408" ry="33.5408" transform="rotate(135 918.55 679.492)" fill="#6E9896"/>
<rect x="1076.75" y="738.864" width="221.252" height="97.6803" fill="#EAE3D0"/>
<ellipse cx="917.231" cy="728.272" rx="15.2993" ry="15.2993" transform="rotate(90 917.231 728.272)" fill="#EAE3D0"/>
<rect x="516.558" y="774.17" width="68.2585" height="62.3741" fill="#97BB9F"/>
<rect x="1226.21" y="274" width="25.8912" height="464.864" fill="#4C6767"/>
<rect x="1226.21" y="632.946" width="25.8912" height="105.918" fill="#97BB9F"/>
<rect x="1272.11" y="532.912" width="25.8912" height="205.952" fill="#6E9896"/>
<rect x="558.925" y="750.633" width="25.8912" height="23.5374" fill="#4C6767"/>
<rect x="433" y="813.007" width="25.8912" height="23.5374" fill="#6E9896"/>
<rect x="1029.67" y="813.007" width="25.8912" height="23.5374" fill="#4C6767"/>
<path d="M1076.75 438.762H1226.21L1076.75 274V438.762Z" fill="#6E9896"/>
<circle cx="1203.26" cy="379.33" r="22.949" transform="rotate(90 1203.26 379.33)" fill="#EAE3D0"/>
</svg>
