<svg width="224" height="75" viewBox="0 0 224 75" fill="none" xmlns="http://www.w3.org/2000/svg">
<rect x="2" y="10" width="212" height="63" stroke="#6E9896" stroke-width="3"/>
<rect x="13.5" y="1.5" width="209" height="60" fill="#6E9896" stroke="#6E9896" stroke-width="3"/>
<path d="M99.558 35.3281H95.7171L94.9613 38H92.3597L96.5521 25.2031H98.7933L102.907 38H100.305L99.558 35.3281ZM96.3236 33.2275H98.9779L97.6683 28.5166L96.3236 33.2275ZM106.883 33.3066V38H104.414V25.2031H108.791C109.488 25.2031 110.118 25.3057 110.68 25.5107C111.243 25.71 111.72 25.9912 112.113 26.3545C112.511 26.7119 112.816 27.1426 113.027 27.6465C113.244 28.1504 113.352 28.71 113.352 29.3252C113.352 29.8994 113.244 30.4297 113.027 30.916C112.816 31.4023 112.511 31.8242 112.113 32.1816C111.72 32.5332 111.243 32.8086 110.68 33.0078C110.118 33.207 109.488 33.3066 108.791 33.3066H106.883ZM106.883 31.3027H108.791C109.142 31.3027 109.447 31.25 109.705 31.1445C109.963 31.0391 110.176 30.8955 110.346 30.7139C110.522 30.5322 110.651 30.3242 110.733 30.0898C110.821 29.8496 110.865 29.6006 110.865 29.3428C110.865 29.0439 110.821 28.7656 110.733 28.5078C110.651 28.25 110.522 28.0244 110.346 27.8311C110.176 27.6377 109.963 27.4854 109.705 27.374C109.447 27.2627 109.142 27.207 108.791 27.207H106.883V31.3027ZM117.874 33.3066V38H115.404V25.2031H119.781C120.479 25.2031 121.108 25.3057 121.671 25.5107C122.233 25.71 122.711 25.9912 123.104 26.3545C123.502 26.7119 123.807 27.1426 124.018 27.6465C124.234 28.1504 124.343 28.71 124.343 29.3252C124.343 29.8994 124.234 30.4297 124.018 30.916C123.807 31.4023 123.502 31.8242 123.104 32.1816C122.711 32.5332 122.233 32.8086 121.671 33.0078C121.108 33.207 120.479 33.3066 119.781 33.3066H117.874ZM117.874 31.3027H119.781C120.133 31.3027 120.438 31.25 120.695 31.1445C120.953 31.0391 121.167 30.8955 121.337 30.7139C121.513 30.5322 121.642 30.3242 121.724 30.0898C121.812 29.8496 121.855 29.6006 121.855 29.3428C121.855 29.0439 121.812 28.7656 121.724 28.5078C121.642 28.25 121.513 28.0244 121.337 27.8311C121.167 27.6377 120.953 27.4854 120.695 27.374C120.438 27.2627 120.133 27.207 119.781 27.207H117.874V31.3027ZM128.882 36.0049H134.876V38H126.404V25.2031H128.882V36.0049ZM141.595 31.1006L144.118 25.2031H146.834L142.808 33.5703L142.799 38H140.339L140.33 33.4648L136.366 25.2031H139.073L141.595 31.1006Z" fill="white"/>
</svg>
